<svg xmlns="http://www.w3.org/2000/svg" width="256" height="256" viewBox="0 0 256 256" role="img" aria-label="TOURNEYS">
<defs>
<linearGradient id="panelBg" x1="0" y1="0" x2="1" y2="1"><stop offset="0%" stop-color="#1639A8" stop-opacity="0.55"/><stop offset="100%" stop-color="#081538" stop-opacity="1"/></linearGradient>
<linearGradient id="activeBg" x1="0" y1="0" x2="1" y2="1"><stop offset="0%" stop-color="#0045D9"/><stop offset="100%" stop-color="#00AFFF"/></linearGradient>
<filter id="shadow" x="-50%" y="-50%" width="200%" height="200%"><feDropShadow dx="0" dy="10" stdDeviation="12" flood-color="#000814" flood-opacity="0.5"/></filter>
<filter id="glow" x="-80%" y="-80%" width="260%" height="260%"><feDropShadow dx="0" dy="0" stdDeviation="4" flood-color="#FFBE18" flood-opacity="0.92"/><feDropShadow dx="0" dy="0" stdDeviation="10" flood-color="#FFBE18" flood-opacity="0.48"/><feDropShadow dx="0" dy="0" stdDeviation="18" flood-color="#FFBE18" flood-opacity="0.22"/></filter>
<filter id="softGlow" x="-80%" y="-80%" width="260%" height="260%"><feDropShadow dx="0" dy="0" stdDeviation="10" flood-color="#FFBE18" flood-opacity="0.24"/></filter>
</defs>
<g filter="url(#shadow)">
  <rect x="28" y="24" width="200" height="200" rx="40" fill="url(#activeBg)" fill-opacity="1" stroke="#7FE6FF" stroke-width="3" filter="url(#softGlow)"/>
  <rect x="42" y="38" width="172" height="172" rx="32" fill="#FFFFFF" fill-opacity="0.07" stroke="#FFFFFF" stroke-opacity="0.07" stroke-width="2"/>
</g>
<g style="color:#FFBE18" filter="url(#glow)"><path d="M98 92 H158 V112 C158 136 146 152 128 158 C110 152 98 136 98 112 Z" fill="none" stroke="currentColor" stroke-width="10" stroke-linejoin="round"/><path d="M98 100 H80 C78 124 88 138 108 142" fill="none" stroke="currentColor" stroke-width="10" stroke-linecap="round"/><path d="M158 100 H176 C178 124 168 138 148 142" fill="none" stroke="currentColor" stroke-width="10" stroke-linecap="round"/><path d="M118 158 V176 H138 V158 M108 188 H148" fill="none" stroke="currentColor" stroke-width="10" stroke-linecap="round"/></g>
<text x="128" y="214" text-anchor="middle" font-family="Arial, Helvetica, sans-serif" font-weight="700" font-size="18" letter-spacing="1.2" fill="#EAF7FF" opacity="0.96">TOURNEYS</text>
</svg>