<svg xmlns="http://www.w3.org/2000/svg" width="256" height="256" viewBox="0 0 256 256" role="img" aria-label="WALLET">
<defs>
<linearGradient id="panelBg" x1="0" y1="0" x2="1" y2="1"><stop offset="0%" stop-color="#1639A8" stop-opacity="0.55"/><stop offset="100%" stop-color="#081538" stop-opacity="1"/></linearGradient>
<linearGradient id="activeBg" x1="0" y1="0" x2="1" y2="1"><stop offset="0%" stop-color="#0045D9"/><stop offset="100%" stop-color="#00AFFF"/></linearGradient>
<filter id="shadow" x="-50%" y="-50%" width="200%" height="200%"><feDropShadow dx="0" dy="10" stdDeviation="12" flood-color="#000814" flood-opacity="0.5"/></filter>
<filter id="glow" x="-80%" y="-80%" width="260%" height="260%"><feDropShadow dx="0" dy="0" stdDeviation="4" flood-color="#FF9A1F" flood-opacity="0.92"/><feDropShadow dx="0" dy="0" stdDeviation="10" flood-color="#FF9A1F" flood-opacity="0.48"/><feDropShadow dx="0" dy="0" stdDeviation="18" flood-color="#FF9A1F" flood-opacity="0.22"/></filter>
<filter id="softGlow" x="-80%" y="-80%" width="260%" height="260%"><feDropShadow dx="0" dy="0" stdDeviation="10" flood-color="#FF9A1F" flood-opacity="0.24"/></filter>
</defs>
<g filter="url(#shadow)">
  <rect x="28" y="24" width="200" height="200" rx="40" fill="url(#panelBg)" fill-opacity="1" stroke="#FF9A1F" stroke-width="3" filter="url(#softGlow)"/>
  <rect x="42" y="38" width="172" height="172" rx="32" fill="#0A184A" fill-opacity="1" stroke="#FFFFFF" stroke-opacity="0.07" stroke-width="2"/>
</g>
<g style="color:#FF9A1F" filter="url(#glow)"><path d="M78 100 H170 Q182 100 182 112 V154 Q182 166 170 166 H86 Q74 166 74 154 V112 Q74 100 86 100 H152 V88 H94 Q78 88 78 100 Z" fill="none" stroke="currentColor" stroke-width="10" stroke-linecap="round" stroke-linejoin="round"/><rect x="142" y="120" width="40" height="26" rx="8" fill="none" stroke="currentColor" stroke-width="10"/><circle cx="162" cy="133" r="4.5" fill="currentColor"/></g>
<text x="128" y="214" text-anchor="middle" font-family="Arial, Helvetica, sans-serif" font-weight="700" font-size="18" letter-spacing="1.2" fill="#EAF7FF" opacity="0.96">WALLET</text>
</svg>